<svg width="326" height="312" viewBox="0 0 326 312" fill="none" xmlns="http://www.w3.org/2000/svg">
<path d="M131.576 118.796C115.941 68.406 109.114 75.8649 85.6358 62.0647C98.6964 83.6575 94.8676 96.4086 131.576 118.796Z" fill="#71C15D"/>
<path d="M191.715 113.99C237.296 87.42 228.493 82.4455 236.658 56.4647C218.557 74.0479 205.271 73.1856 191.715 113.99Z" fill="#71C15D"/>
<path d="M216.833 173.545C252.638 212.296 255.589 202.625 282.722 204.973C261.637 191.106 259.604 177.949 216.833 173.545Z" fill="#71C15D"/>
<path d="M167.331 213.58C142.349 260.051 152.454 259.693 159.067 286.111C165.314 261.661 177.093 255.455 167.331 213.58Z" fill="#71C15D"/>
<path d="M111.841 184.13C60.7067 171.132 63.4991 180.85 39.4653 193.658C64.7002 193.805 73.5719 203.732 111.841 184.13Z" fill="#71C15D"/>
<path d="M288.53 118.238C320.296 99.505 306.081 55.7564 269.68 60.2236C269.68 60.2236 241.482 67.2829 222.388 82.9498C203.295 98.6167 162.991 159.028 162.991 159.028C162.991 159.028 231.107 184.212 255.762 185.664C280.418 187.116 307.38 176.252 307.38 176.252C339.455 158.47 325.24 114.722 288.53 118.238Z" fill="#F178B6"/>
<path d="M239.926 265.523C267.559 289.945 304.774 262.907 289.276 229.668C289.276 229.668 273.849 205.031 253.049 191.714C232.249 178.396 162.339 158.733 162.339 158.733C162.339 158.733 159.437 231.297 165.675 255.194C171.913 279.092 190.577 301.378 190.577 301.378C217.4 326.388 254.615 299.349 239.926 265.523Z" fill="#F178B6"/>
<path d="M84.8671 265.89C70.179 299.717 107.394 326.755 134.217 301.745C134.217 301.745 152.881 279.46 159.119 255.562C165.356 231.665 162.455 159.1 162.455 159.1C162.455 159.1 92.545 178.764 71.7447 192.081C50.9445 205.399 35.5168 230.036 35.5168 230.036C20.0197 263.275 57.2347 290.313 84.8671 265.89Z" fill="#F178B6"/>
<path d="M37.4073 118.149C0.697105 114.633 -13.5177 158.381 18.5572 176.163C18.5572 176.163 45.5194 187.027 70.1749 185.575C94.8303 184.123 162.946 158.939 162.946 158.939C162.946 158.939 122.642 98.5276 103.549 82.8607C84.4556 67.1938 56.2569 60.1344 56.2569 60.1344C19.8558 55.6672 5.64138 99.4159 37.4073 118.149Z" fill="#F178B6"/>
<path d="M163 27.0004C155 -8.99961 109 -8.99962 102 27.0004C102 27.0004 100 55.9999 109 78.9999C118 102 163 159 163 159C163 159 208 102 217 78.9999C226 55.9999 224 27 224 27C217 -9.00002 171 -8.99961 163 27.0004Z" fill="#F178B6"/>
<circle cx="163.5" cy="160.5" r="37.5" fill="#FFFCDD"/>
</svg>
